<?xml version="1.0" encoding="UTF-8"?>
<svg id="Layer_2" data-name="Layer 2" xmlns="http://www.w3.org/2000/svg" viewBox="0 0 1101.89 111.44">
  <defs>
    <style>
      .cls-1 {
        fill-rule: evenodd;
        opacity: .76;
      }

      .cls-1, .cls-2 {
        fill: #fff;
        stroke-width: 0px;
      }
    </style>
  </defs>
  <g id="Layer_2-2" data-name="Layer 2">
    <g>
      <g>
        <path class="cls-2" d="M199.31,10.66c5.96,1.21,18.25,5.77,19.52,15.07.14,8.41-4.97,11.47-10,11.89-6.34-1.55-8.87-5.73-17.5-5.22-13.78.81-27.28,16.4-26.44,30.65.82,13.9,8.78,24.49,24.11,23.58,9.1-.54,16.26-3.61,20.24-5.4l-.11.13c2.46-1.11,4.45-1.95,5.53-2.01,5.27-.31,10.92,7.77,11.14,11.48.55,9.34-12.87,18.19-33.59,19.42-28.63,1.69-48.74-17.2-50.21-41.99-1.56-26.48,17.35-56.2,47.3-57.97,3.47-.21,6.97-.05,10,.37Z"/>
        <path class="cls-2" d="M288.56,91.71c-.04-.84-.54-6.58-1.81-13.49-4.2.07-9.83.44-16.06.72l-14.15.64c-.61,7.72-.63,12.76-.39,17.92.25,5.63-2.62,11.17-9.69,11.49-6.47.29-11.7-3.8-12-10.39-.53-11.75,2.51-90.92,37.15-92.48,20.86-.94,30.47,39.11,33.27,53.15,2.5,12.86,3.52,22.06,3.94,31.53.25,5.51-5.01,11.52-9.56,11.72-7.19.32-10.45-5.29-10.7-10.81ZM258.5,56.31c7.56-.22,16.56-.27,22.45-.29,1.08-.05-.12,0,.96-.04-2.3-13.71-7.19-20.94-11.74-20.73-5.15.23-9.47,8.35-11.66,21.07Z"/>
        <path class="cls-2" d="M392.67,26.9c-21.83.67-22.91.82-24.11.86.09,10.8.16,24.73.51,36.12.3,9.72.84,19.42,2.07,28.51.18,5.76-10.49,10.29-13.13,10.37-6,.18-10.13-5.45-10.34-12.29.02.6-.85-35.51-1.29-50.03-.09-3-.3-5.75-.79-10.18-8.16.25-17.63.54-22.18,1.16-6.72.21-9.91-6.18-10.08-11.58-.43-14.15,23.64-12.01,38.83-13.92.84-.15,32.74-1.24,34.42-1.3,8.76-.27,17.21,1.39,17.47,9.67.2,6.48-5.16,11.92-11.38,12.6Z"/>
        <path class="cls-2" d="M519.1.81c5.9,1.46,17.99,6.55,18.86,15.9-.22,8.4-5.46,11.25-10.5,11.45-6.27-1.82-8.62-6.1-17.26-5.96-13.8.22-27.96,15.21-27.73,29.49.23,13.92,7.72,24.84,23.08,24.59,9.12-.15,16.39-2.91,20.45-4.53l-.12.12c2.5-1,4.53-1.75,5.61-1.77,5.28-.09,10.57,8.23,10.63,11.95.15,9.36-13.64,17.62-34.39,17.96-28.67.46-47.96-19.27-48.36-44.1C458.96,29.38,479.13.49,509.13,0c3.48-.06,6.96.25,9.97.8Z"/>
        <path class="cls-2" d="M604.6,86.63c.01-.84-.13-6.6-.98-13.58-4.2-.19-9.84-.16-16.08-.26l-14.16-.23c-1.08,7.66-1.41,12.7-1.49,17.86-.09,5.64-3.3,10.99-10.38,10.87-6.48-.1-11.45-4.51-11.34-11.1.19-11.76,8.06-90.6,42.74-90.04,20.88.34,28.02,40.9,29.95,55.09,1.71,12.99,2.16,22.24,2.01,31.72-.09,5.52-5.7,11.19-10.26,11.12-7.2-.12-10.1-5.92-10.02-11.44ZM576.76,49.46c7.56.24,16.55.75,22.42,1.08,1.08.02-.12,0,.96.02-1.46-13.82-5.9-21.34-10.46-21.41-5.16-.08-9.97,7.76-12.93,20.31Z"/>
        <path class="cls-2" d="M658.34,43.49c-.34,11.28-.34,30.24-.4,33.48,9.24-.06,21.13-.32,28.69-.17,2.64-.19,4.93-.39,7.33-.34,5.76.11,9.51,4.86,9.4,10.74-.08,3.96-3.06,9.54-6.68,10.55-8.93,2.35-18.54,2.89-29.34,2.68-18.36-.35-31.9-1.45-31.66-14.05,1.09-57.35.89-65.28.8-67.08v-.6c.17-8.28,2.93-14.71,11.45-14.54,4.92.09,11.45,3.82,11.25,14.5l-.83,24.83Z"/>
        <path class="cls-2" d="M739.38,45.43c-.48,11.27-.73,30.23-.84,33.47,9.24.06,21.13-.04,28.69.2,2.65-.15,4.93-.32,7.33-.24,5.76.19,9.44,4.99,9.25,10.86-.13,3.96-3.19,9.5-6.82,10.47-8.96,2.23-18.57,2.64-29.37,2.3-18.35-.59-31.88-1.87-31.47-14.46,1.85-57.33,1.74-65.26,1.68-67.06l.02-.6c.27-8.28,3.11-14.67,11.63-14.39,4.92.16,11.4,3.97,11.05,14.64l-1.16,24.81Z"/>
        <path class="cls-2" d="M869.25,25.53c-.27,5.87-2.52,10.46-8.87,10.17-2.4-.11-7.4-.94-10.88-1.09-8.72-1.12-19.53-1.13-27.06-1.83-.1,2.16-.21,4.68-.7,12.82,9.36.19,19.67.65,27.1.99,9.59.44,16.36,2.18,16.33,10.71-.44,7.07-4.42,12.77-12.22,12.42-6.59-.3-21.11-.6-32.5-1.12l-.37,8.15c-.06,1.32-.13,2.76-.09,4.68,10.33.11,26.39.72,37.54,1.23,8.15.37,10.76,6.49,10.59,10.21-.63,13.79-30.87,13.13-42.61,12.6-2.28-.1-4.56-.09-16.91-.65-8.51-.39-10.73-6.97-10.36-15.25.11-2.52.8-9.69,3.4-66.99.64-14.03,18.14-13.23,38.04-12.33,8.63.39,30.18,2.09,29.58,15.28Z"/>
        <path class="cls-2" d="M926.63,11.63c13.3.79,34.48,8.54,33.3,28.42-.99,16.65-13.7,28.28-28.16,34.88,9.63,11.99,17.02,23.13,16.79,27.08-.33,5.51-5.47,9.05-10.5,8.75-3.47-.21-9.44-5.01-9.44-5.01,0,0-12.48-14.57-21.07-23.73-2.19.47-4.24.59-6.17.6-.26,6.36.28,11.56.05,15.39-.41,6.83-2.51,13.92-11.25,13.4-10.06-.6-11.08-5.83-10.62-13.49l.38-6.47c.77-13.06,1.99-27.41,2.66-38.79.79-13.3-.47-18.42-1.42-20.64-.74-1.73-1.24-3.44-1.05-6.67.97-16.29,39.31-14.14,46.5-13.71ZM904.32,37.11c-.65,4.89-1.01,11-1.35,16.75-.18,2.99-.08,3.36-.1,3.72-.01.24-.15.47-.18.95,21.05-.19,35.48-10.4,35.93-17.94.26-4.43-8.9-6.06-13.33-6.32-6.35-.38-14.84.92-20.97,2.84Z"/>
      </g>
      <g>
        <path class="cls-1" d="M1064.51,41.68c-5.63-.57-6.26-.03-9.17-.33-2.43-.25-9.12-6.93-12.76-7.3s-8.12,1.34-8.74,7.53l-.72,7.14c-.18,1.87-.09,7.68,2.73,6.42-3.52,3.4-4.28,7.71-4.66,11.92-.87.16-1.77.35-2.64.55-2.69.63-5.57,1.48-6.9,2.16-1.41.72-1.97,2.45-1.25,3.86.72,1.41,2.45,1.97,3.86,1.25.63-.32,2.88-1.05,5.58-1.68l.9-.2c0,1.67.29,3.22.8,4.66l-.1.04c-1.64.66-3.19,1.47-4.17,1.97l-.46.24c-1.41.72-1.97,2.45-1.25,3.86.72,1.41,2.45,1.97,3.86,1.25l.53-.28c.99-.51,2.27-1.17,3.64-1.73.32-.13.63-.25.92-.35,5.96,6.84,17.58,10.04,24.74,10.77s19.18-.07,26.39-5.58c.27.16.54.34.83.53,1.23.82,2.35,1.72,3.22,2.42l.47.38c1.24.99,3.04.79,4.03-.45.99-1.24.79-3.04-.45-4.03h0l-.4-.33c-1.19-.98-2.42-1.9-3.69-2.77l-.09-.06c.79-1.3,1.38-2.77,1.72-4.4l.84.37c2.52,1.16,4.58,2.33,5.14,2.77,1.26.96,3.06.71,4.02-.55.92-1.22.73-2.95-.44-3.93-1.16-.93-3.81-2.35-6.32-3.5-.82-.37-1.64-.73-2.48-1.07.47-4.2.59-8.57-2.18-12.61,2.51,1.8,3.78-3.87,3.97-5.74l.72-7.13c.63-6.19-3.41-8.76-7.05-9.13s-11.54,4.84-13.96,4.6c-2.92-.3-3.42-.95-9.06-1.52M1058.4,76.41c.8-.18,1.72-.21,2.61-.12s1.79.3,2.53.64c.37.17.8.42,1.18.79.53.49.8,1.19.75,1.91-.09.88-.68,1.43-1.12,1.72s-.93.44-1.32.54c-.86.18-1.74.22-2.61.12-.87-.08-1.73-.29-2.53-.64-.44-.19-.84-.46-1.19-.79-.53-.49-.8-1.19-.75-1.91.09-.88.68-1.43,1.12-1.72.44-.29.93-.44,1.32-.54M1070.42,65.71c.61-.81,1.74-1.75,3.28-1.59s2.46,1.3,2.89,2.22c.45.96.6,2.09.49,3.18s-.48,2.15-1.11,3.01c-.61.82-1.74,1.75-3.28,1.59s-2.46-1.29-2.89-2.22c-.44-.99-.61-2.09-.49-3.17.11-1.09.48-2.16,1.11-3.01M1047.73,63.41c.61-.81,1.74-1.75,3.28-1.59s2.46,1.3,2.89,2.22c.45.96.6,2.09.49,3.18s-.48,2.15-1.11,3.01c-.61.82-1.74,1.75-3.28,1.59s-2.46-1.29-2.89-2.22c-.44-.99-.61-2.09-.49-3.17.11-1.09.48-2.16,1.11-3.01"/>
        <path class="cls-1" d="M37.38,41.68c-5.63.57-6.14,1.23-9.06,1.52-2.42.25-10.32-4.96-13.96-4.6s-7.68,2.94-7.05,9.13l.72,7.13c.19,1.88,1.46,7.55,3.97,5.74-2.77,4.04-2.65,8.41-2.18,12.61-.83.34-1.66.7-2.48,1.07-2.51,1.15-5.16,2.57-6.32,3.5-1.17.98-1.36,2.71-.44,3.93.96,1.26,2.76,1.51,4.02.55.56-.44,2.61-1.61,5.14-2.77l.84-.37c.34,1.63.93,3.1,1.72,4.4l-.09.06c-1.27.87-2.5,1.79-3.69,2.77l-.4.33h0c-1.24.99-1.44,2.8-.45,4.03.99,1.24,2.8,1.44,4.03.45l.47-.38c.87-.7,1.99-1.6,3.22-2.42.29-.19.57-.37.83-.53,7.21,5.51,19.24,6.31,26.39,5.58,7.16-.73,18.78-3.92,24.74-10.77.3.1.6.22.92.35,1.37.55,2.65,1.21,3.64,1.73l.53.28c1.41.72,3.14.16,3.86-1.25.72-1.41.16-3.14-1.25-3.86l-.46-.24c-.98-.51-2.52-1.31-4.17-1.97l-.1-.04c.51-1.44.8-2.99.8-4.66l.9.2c2.71.63,4.95,1.36,5.58,1.68,1.41.72,3.14.16,3.86-1.25.72-1.41.16-3.14-1.25-3.86-1.33-.68-4.2-1.53-6.9-2.16-.87-.2-1.76-.39-2.64-.55-.38-4.21-1.14-8.52-4.66-11.92,2.82,1.26,2.92-4.54,2.73-6.42l-.72-7.14c-.63-6.19-5.1-7.9-8.74-7.53s-10.33,7.06-12.76,7.3c-2.92.3-3.54-.25-9.17.33M43.5,76.41c.39.09.88.25,1.32.54.44.29,1.03.84,1.12,1.72.05.72-.23,1.42-.75,1.91-.35.33-.75.6-1.19.79-.8.35-1.66.56-2.53.64-.87.1-1.75.06-2.61-.12-.39-.09-.88-.25-1.32-.54s-1.03-.84-1.12-1.72c-.05-.72.23-1.42.75-1.91.38-.37.81-.62,1.18-.79.75-.34,1.64-.55,2.53-.64s1.81-.06,2.61.12M31.47,65.71c.63.85,1,1.92,1.11,3.01.12,1.08-.04,2.18-.49,3.17-.43.92-1.35,2.06-2.89,2.22s-2.67-.78-3.28-1.59c-.63-.85-1-1.92-1.11-3.01s.04-2.21.49-3.18c.43-.92,1.35-2.06,2.89-2.22s2.67.78,3.28,1.59M54.16,63.42c.63.85,1,1.92,1.11,3.01.12,1.08-.04,2.18-.49,3.17-.43.92-1.35,2.06-2.89,2.22s-2.67-.78-3.28-1.59c-.63-.85-1-1.92-1.11-3.01s.04-2.21.49-3.18c.43-.92,1.35-2.06,2.89-2.22s2.67.78,3.28,1.59"/>
      </g>
    </g>
  </g>
</svg>